# xmcd
#
# Track frame offsets:
#	150
#	13537
#	24189
#	41319
#	60846
#	72818
#	91345
#	102086
#	114168
#	127570
#	143037
#	158505
#	172200
#	184119
#	196222
#	209494
#	224017
#	238062
#	251060
#	264092
#	276732
#	295432
#
# Disc length: 4139
#
# Revision: 3
# Processed by: cddbd v1.5.1PL0 Copyright (c) Steve Scherf et al.
# Submitted via: audiograbber 1.80
# Normalized: r1:DSETVAR1,TDELIM( - );r2:TSWAP
#
DISCID=33102916
DTITLE=Various Artist - 50 Years Of Country Music Vol 2
DYEAR=1900
DGENRE=
TTITLE0=Little Jimmy Dickens - She's Not Forgotten Yet
TTITLE1=Little Jimmy Dickens - When Your Hose Is Not A Home
TTITLE2=Martin Delray - Someone To Love You
TTITLE3=Holly Dunn - Just Across The Rio Grande
TTITLE4=Danny Dill - He's Binding His Time
TTITLE5=Sara Evans - Three Cords And The Truth
TTITLE6=Wild Bill Emerson - Harlan County
TTITLE7=Roland Eaton - If Love Was Money
TTITLE8=David Frizzell - Country Pride
TTITLE9=Allen Frizzell - Leave My Chapter Out
TTITLE10=Lefty Frizzell - That's All I Can Remember
TTITLE11=Lefty Frizzell - Make That One For The Road A Cup Of Coffee
TTITLE12=Lefty Frizzell - I Never Go Around Mirrors
TTITLE13=Billy Fry - Lona's Gone (My Lona Lee)
TTITLE14=Johnny Gray - One Of God's Chosen Ones
TTITLE15=Johnny Gray - Don't Send Me No Angel
TTITLE16=Dolan Gray - Stand In Woman
TTITLE17=Lloyd Goodson - Down Home Up Bringin'
TTITLE18=Clinton Gregory - Here's To You, Tears To Me
TTITLE19=Vern Gosdin - My Baby Sings The Blues
TTITLE20=Vince Gill - Pocket Full Of Gold
TTITLE21=Ron Gaddis - After All
EXTD=
EXTT0=
EXTT1=
EXTT2=
EXTT3=
EXTT4=
EXTT5=
EXTT6=
EXTT7=
EXTT8=
EXTT9=
EXTT10=
EXTT11=
EXTT12=
EXTT13=
EXTT14=
EXTT15=
EXTT16=
EXTT17=
EXTT18=
EXTT19=
EXTT20=
EXTT21=
PLAYORDER=
